<svg width="20" height="20" viewBox="0 0 20 20" fill="none" xmlns="http://www.w3.org/2000/svg">
<path d="M10 17.5C8.94747 16.6022 7.97185 15.6179 7.08335 14.5575C5.75002 12.965 4.16669 10.5933 4.16669 8.33333C4.16611 7.17913 4.50794 6.0507 5.14893 5.09085C5.78992 4.131 6.70125 3.38288 7.76758 2.94116C8.83391 2.49944 10.0073 2.38399 11.1393 2.60941C12.2713 2.83482 13.3109 3.39098 14.1267 4.2075C14.6698 4.74821 15.1003 5.39128 15.3933 6.09947C15.6862 6.80767 15.8358 7.56694 15.8334 8.33333C15.8334 10.5933 14.25 12.965 12.9167 14.5575C12.0282 15.6179 11.0526 16.6022 10 17.5ZM10 5.83333C9.33698 5.83333 8.70109 6.09672 8.23225 6.56556C7.76341 7.0344 7.50002 7.67029 7.50002 8.33333C7.50002 8.99637 7.76341 9.63226 8.23225 10.1011C8.70109 10.5699 9.33698 10.8333 10 10.8333C10.6631 10.8333 11.2989 10.5699 11.7678 10.1011C12.2366 9.63226 12.5 8.99637 12.5 8.33333C12.5 7.67029 12.2366 7.0344 11.7678 6.56556C11.2989 6.09672 10.6631 5.83333 10 5.83333Z" fill="#D3B288"/>
</svg>
